Coordinates
version=1
nRows=9
nColumns=36
inDegrees=yes

Units are S.I. units (second, meters, Newtons, ...)
If the header above contains a line with 'inDegrees', this indicates whether rotational values are in degrees (yes) or radians (no).

endheader
time	pelvis_tilt	pelvis_list	pelvis_rotation	pelvis_tx	pelvis_ty	pelvis_tz	hip_flexion_r	hip_adduction_r	hip_rotation_r	knee_angle_r	knee_angle_r_beta	ankle_angle_r	subtalar_angle_r	mtp_angle_r	hip_flexion_l	hip_adduction_l	hip_rotation_l	knee_angle_l	knee_angle_l_beta	ankle_angle_l	subtalar_angle_l	mtp_angle_l	lumbar_extension	lumbar_bending	lumbar_rotation	arm_flex_r	arm_add_r	arm_rot_r	elbow_flex_r	pro_sup_r	arm_flex_l	arm_add_l	arm_rot_l	elbow_flex_l	pro_sup_l
      2.70000000	     -0.86566121	     -3.60557473	      9.22158130	      0.72738747	      1.08859063	      0.20973467	     20.80239780	     -8.34121007	     -7.63246866	     27.47232480	      0.47948252	    -21.91980444	      5.89520409	     -7.49999987	     17.86494976	    -11.98462975	     -4.33017669	     28.73382230	      0.50149981	    -10.00600213	     -2.95788310	     -7.49999987	    -11.12731397	      0.83173038	      1.30064959	     45.50101032	      3.69236197	     55.51095425	    123.53530049	     86.67421580	     51.69783724	     -1.04134260	     60.87793653	    120.63849960	     93.35240473
      2.71666670	     -1.04027554	     -3.35461795	      9.15158825	      0.72839672	      1.04885691	      0.21598543	     22.36000820	     -8.71490154	     -7.53240760	     30.04868084	      0.52444842	    -22.41593681	      4.44547433	     -7.49999987	     19.63423747	    -12.09209820	     -3.99273642	     31.80276700	      0.55506300	     -8.95831856	     -3.97770188	     -7.49999987	    -12.05630703	     -0.03118194	      1.68062301	     45.28972312	      3.72849258	     55.72982009	    123.58630828	     86.01052661	     51.61492713	     -1.40153786	     61.58971167	    121.23890811	     92.38116949
      2.73333330	     -0.82312631	     -3.21928971	      9.38023871	      0.72012710	      1.01090396	      0.21727338	     23.05977528	     -8.89521103	     -7.57486224	     31.18608139	      0.54429980	    -21.30173163	      3.88783368	     -7.49999987	     21.50267365	    -12.30450486	     -3.41666367	     35.02691997	      0.61133508	     -9.25292863	     -5.18917168	     -7.49999987	    -13.51185234	     -0.44532409	      2.01736231	     45.89104970	      3.47909720	     55.63252892	    123.42441492	     85.27564763	     51.92133903	     -1.56234045	     62.23144186	    120.89267679	     91.39153915
      2.75000000	     -1.01974093	     -3.46594025	      9.07963416	      0.71985653	      0.95656908	      0.21826094	     25.91752983	     -8.64084484	     -5.98802330	     36.48953450	      0.63686252	    -14.85525544	      1.86302015	     -7.49999987	     24.29655717	    -12.94079892	     -2.07440236	     40.35904819	      0.70439827	     -6.15312680	     -6.74876497	     -7.49999987	    -14.94180631	     -0.18686848	      2.63177535	     46.93633897	      3.34476170	     56.28729682	    124.24265067	     83.73766800	     52.13820964	     -1.52062599	     63.07634704	    121.30235616	     89.19463782
      2.76666670	     -1.86990801	     -3.88042625	      8.84980769	      0.72958667	      0.92288413	      0.22251394	     28.64752373	     -8.12386739	     -4.47480424	     43.15706021	      0.75323280	     -5.43272348	     -1.00186647	     -7.49999987	     27.33980213	    -13.41930566	     -0.26131385	     45.91219076	      0.80131890	     -0.09493467	     -7.63789478	     -7.49999987	    -15.67494144	      0.15341224	      3.15738159	     46.11008551	      3.85521427	     59.01980098	    124.71569234	     90.82408760	     50.26571575	     -2.29430042	     63.69496274	    122.41944851	     96.21181597
      2.78333330	     -2.24127277	     -4.25210496	      9.03364563	      0.72818994	      0.88034662	      0.22827858	     32.15629516	     -7.73850604	     -3.23430571	     52.01350583	      0.90780693	      4.72796079	     -3.90412560	     -7.49999987	     30.40338317	    -13.87023078	      1.63463689	     52.55800522	      0.91731024	      8.58233677	     -7.83603261	     -7.49999987	    -16.71611011	      0.08737981	      3.89814931	     45.52628219	      3.83199412	     61.14386811	    124.52147944	     88.47373896	     49.34053922	     -2.55777375	     64.41816595	    121.92309024	     93.15731950
      2.80000000	     -3.29441158	     -4.28859377	      9.41697975	      0.72492679	      0.83189944	      0.22859711	     36.70688377	     -8.06671619	     -2.39239622	     60.37857957	      1.05380501	     14.93973783	     -5.22345583	     -7.49999987	     34.82988394	    -13.86218084	      3.43765014	     59.72177090	      1.04234154	     18.33698907	     -6.97294270	     -7.49999987	    -17.39220426	     -0.28427815	      4.03664317	     45.24177960	      3.44658297	     63.13183018	    124.83521201	     88.04143637	     49.41894750	     -2.47617026	     64.06694223	    121.56896705	     92.29364519
      2.81666670	     -4.80244408	     -4.52126030	      9.47406984	      0.72278660	      0.79042202	      0.23019860	     42.44012369	     -8.39306735	     -1.89940403	     68.86068051	      1.20184560	     23.45325363	     -5.99374341	     -7.49999987	     40.64188276	    -14.20613492	      4.75156862	     67.79440112	      1.18323551	     26.43632338	     -5.93344504	     -7.49999987	    -17.51583710	     -0.58061630	      4.40929233	     45.10029694	      3.46770691	     63.31973771	    124.50437270	     94.99340508	     49.59796825	     -2.08368996	     62.88793082	    120.68269750	     98.43847943
      2.83333330	     -6.21995363	     -4.53635748	      9.25223163	      0.71168466	      0.75674735	      0.22701983	     48.91951468	     -8.88905241	     -1.00399863	     76.79074157	      1.34025128	     29.17382568	     -5.99788693	     -7.49999987	     47.60144349	    -14.35194503	      5.68111592	     76.69125919	      1.33851498	     31.66112138	     -5.50961662	     -7.49999987	    -18.20854831	     -0.97463775	      4.82689738	     45.41475285	      2.74301755	     64.51476338	    124.73133264	     94.17884755	     49.91678931	     -1.44095188	     62.19753211	    119.39261278	     97.69284950
